<mxfile host="app.diagrams.net" agent="Mozilla/5.0 (Macintosh; Intel Mac OS X 10_15_7) AppleWebKit/537.36 (KHTML, like Gecko) Chrome/130.0.0.0 Safari/537.36" version="24.8.6">
  <diagram name="第 1 页" id="H7AIkp7wf3Uqtu_33iqM">
    <mxGraphModel dx="3267" dy="1319" grid="1" gridSize="10" guides="1" tooltips="1" connect="1" arrows="1" fold="1" page="1" pageScale="1" pageWidth="827" pageHeight="1169" math="0" shadow="0">
      <root>
        <mxCell id="0" />
        <mxCell id="1" parent="0" />
        <mxCell id="W_dNfOB0aYCIcV3kxhHt-1" value="" style="endArrow=none;html=1;rounded=0;sketch=1;hachureGap=4;jiggle=2;curveFitting=1;fontFamily=Architects Daughter;fontSource=https%3A%2F%2Ffonts.googleapis.com%2Fcss%3Ffamily%3DArchitects%2BDaughter;" edge="1" parent="1">
          <mxGeometry width="50" height="50" relative="1" as="geometry">
            <mxPoint x="80" y="120" as="sourcePoint" />
            <mxPoint x="760" y="120" as="targetPoint" />
          </mxGeometry>
        </mxCell>
        <mxCell id="W_dNfOB0aYCIcV3kxhHt-2" value="" style="endArrow=none;html=1;rounded=0;sketch=1;hachureGap=4;jiggle=2;curveFitting=1;fontFamily=Architects Daughter;fontSource=https%3A%2F%2Ffonts.googleapis.com%2Fcss%3Ffamily%3DArchitects%2BDaughter;" edge="1" parent="1">
          <mxGeometry width="50" height="50" relative="1" as="geometry">
            <mxPoint x="80" y="120" as="sourcePoint" />
            <mxPoint x="80" y="1040" as="targetPoint" />
          </mxGeometry>
        </mxCell>
        <mxCell id="W_dNfOB0aYCIcV3kxhHt-3" value="" style="endArrow=none;html=1;rounded=0;sketch=1;hachureGap=4;jiggle=2;curveFitting=1;fontFamily=Architects Daughter;fontSource=https%3A%2F%2Ffonts.googleapis.com%2Fcss%3Ffamily%3DArchitects%2BDaughter;" edge="1" parent="1">
          <mxGeometry width="50" height="50" relative="1" as="geometry">
            <mxPoint x="760" y="120" as="sourcePoint" />
            <mxPoint x="760" y="1040" as="targetPoint" />
          </mxGeometry>
        </mxCell>
        <mxCell id="W_dNfOB0aYCIcV3kxhHt-4" value="" style="endArrow=none;html=1;rounded=0;sketch=1;hachureGap=4;jiggle=2;curveFitting=1;fontFamily=Architects Daughter;fontSource=https%3A%2F%2Ffonts.googleapis.com%2Fcss%3Ffamily%3DArchitects%2BDaughter;" edge="1" parent="1">
          <mxGeometry width="50" height="50" relative="1" as="geometry">
            <mxPoint x="80" y="1040" as="sourcePoint" />
            <mxPoint x="760" y="1040" as="targetPoint" />
          </mxGeometry>
        </mxCell>
        <mxCell id="W_dNfOB0aYCIcV3kxhHt-5" value="" style="rounded=0;whiteSpace=wrap;html=1;sketch=1;hachureGap=4;jiggle=2;curveFitting=1;fontFamily=Architects Daughter;fontSource=https%3A%2F%2Ffonts.googleapis.com%2Fcss%3Ffamily%3DArchitects%2BDaughter;" vertex="1" parent="1">
          <mxGeometry x="90" y="130" width="660" height="150" as="geometry" />
        </mxCell>
        <mxCell id="W_dNfOB0aYCIcV3kxhHt-6" value="&lt;font size=&quot;1&quot; face=&quot;Helvetica&quot;&gt;&lt;b style=&quot;font-size: 16px;&quot;&gt;Redis: 缓存雪崩 缓存击穿 缓存穿透&lt;/b&gt;&lt;/font&gt;" style="text;html=1;align=center;verticalAlign=middle;whiteSpace=wrap;rounded=0;fontFamily=Architects Daughter;fontSource=https%3A%2F%2Ffonts.googleapis.com%2Fcss%3Ffamily%3DArchitects%2BDaughter;" vertex="1" parent="1">
          <mxGeometry x="-30" y="50" width="780" height="30" as="geometry" />
        </mxCell>
        <mxCell id="W_dNfOB0aYCIcV3kxhHt-7" value="&lt;span style=&quot;font-size: 20px;&quot;&gt;&lt;font style=&quot;font-size: 20px;&quot;&gt;正常情况&lt;/font&gt;&lt;/span&gt;" style="text;html=1;align=center;verticalAlign=middle;whiteSpace=wrap;rounded=0;fontFamily=Helvetica;fontStyle=1;fontSize=20;" vertex="1" parent="1">
          <mxGeometry x="110" y="190" width="90" height="30" as="geometry" />
        </mxCell>
        <mxCell id="W_dNfOB0aYCIcV3kxhHt-8" value="" style="sketch=0;outlineConnect=0;fontColor=#232F3E;gradientColor=none;fillColor=#232F3D;strokeColor=none;dashed=0;verticalLabelPosition=bottom;verticalAlign=top;align=center;html=1;fontSize=12;fontStyle=0;aspect=fixed;pointerEvents=1;shape=mxgraph.aws4.client;hachureGap=4;jiggle=2;curveFitting=1;fontFamily=Architects Daughter;fontSource=https%3A%2F%2Ffonts.googleapis.com%2Fcss%3Ffamily%3DArchitects%2BDaughter;" vertex="1" parent="1">
          <mxGeometry x="250" y="176.75" width="57.99" height="56.5" as="geometry" />
        </mxCell>
        <mxCell id="W_dNfOB0aYCIcV3kxhHt-9" value="" style="image;sketch=0;aspect=fixed;html=1;points=[];align=center;fontSize=12;image=img/lib/mscae/Cache_Redis_Product.svg;hachureGap=4;jiggle=2;curveFitting=1;fontFamily=Architects Daughter;fontSource=https%3A%2F%2Ffonts.googleapis.com%2Fcss%3Ffamily%3DArchitects%2BDaughter;" vertex="1" parent="1">
          <mxGeometry x="470" y="182" width="54.76" height="46" as="geometry" />
        </mxCell>
        <mxCell id="W_dNfOB0aYCIcV3kxhHt-10" value="" style="image;aspect=fixed;html=1;points=[];align=center;fontSize=12;image=img/lib/azure2/databases/Azure_Database_MySQL_Server.svg;sketch=1;hachureGap=4;jiggle=2;curveFitting=1;fontFamily=Architects Daughter;fontSource=https%3A%2F%2Ffonts.googleapis.com%2Fcss%3Ffamily%3DArchitects%2BDaughter;" vertex="1" parent="1">
          <mxGeometry x="670" y="173.37" width="47.44" height="63.25" as="geometry" />
        </mxCell>
        <mxCell id="W_dNfOB0aYCIcV3kxhHt-11" value="数据库" style="text;html=1;align=center;verticalAlign=middle;whiteSpace=wrap;rounded=0;fontFamily=Helvetica;fontStyle=1;fontSize=16;" vertex="1" parent="1">
          <mxGeometry x="664" y="240" width="60" height="30" as="geometry" />
        </mxCell>
        <mxCell id="W_dNfOB0aYCIcV3kxhHt-12" value="" style="endArrow=classic;html=1;rounded=0;hachureGap=4;fontFamily=Architects Daughter;fontSource=https%3A%2F%2Ffonts.googleapis.com%2Fcss%3Ffamily%3DArchitects%2BDaughter;entryX=0.576;entryY=0.4;entryDx=0;entryDy=0;entryPerimeter=0;flowAnimation=1;" edge="1" parent="1" target="W_dNfOB0aYCIcV3kxhHt-5">
          <mxGeometry width="50" height="50" relative="1" as="geometry">
            <mxPoint x="310" y="190" as="sourcePoint" />
            <mxPoint x="420" y="170" as="targetPoint" />
          </mxGeometry>
        </mxCell>
        <mxCell id="W_dNfOB0aYCIcV3kxhHt-13" value="" style="endArrow=classic;html=1;rounded=0;hachureGap=4;fontFamily=Architects Daughter;fontSource=https%3A%2F%2Ffonts.googleapis.com%2Fcss%3Ffamily%3DArchitects%2BDaughter;flowAnimation=1;exitX=-0.011;exitY=0.694;exitDx=0;exitDy=0;exitPerimeter=0;" edge="1" parent="1" source="W_dNfOB0aYCIcV3kxhHt-9">
          <mxGeometry width="50" height="50" relative="1" as="geometry">
            <mxPoint x="470" y="205" as="sourcePoint" />
            <mxPoint x="310" y="214" as="targetPoint" />
          </mxGeometry>
        </mxCell>
        <mxCell id="W_dNfOB0aYCIcV3kxhHt-14" value="Redis" style="text;html=1;align=center;verticalAlign=middle;whiteSpace=wrap;rounded=0;fontFamily=Helvetica;fontStyle=1;fontSize=16;" vertex="1" parent="1">
          <mxGeometry x="470" y="228" width="60" height="30" as="geometry" />
        </mxCell>
        <mxCell id="W_dNfOB0aYCIcV3kxhHt-15" value="客户端" style="text;html=1;align=center;verticalAlign=middle;whiteSpace=wrap;rounded=0;fontFamily=Helvetica;fontStyle=1;fontSize=16;" vertex="1" parent="1">
          <mxGeometry x="247.98999999999998" y="233.25" width="60" height="30" as="geometry" />
        </mxCell>
        <mxCell id="W_dNfOB0aYCIcV3kxhHt-16" value="1. 读请求" style="text;html=1;align=center;verticalAlign=middle;whiteSpace=wrap;rounded=0;fontFamily=Helvetica;fontStyle=1" vertex="1" parent="1">
          <mxGeometry x="360" y="170" width="60" height="30" as="geometry" />
        </mxCell>
        <mxCell id="W_dNfOB0aYCIcV3kxhHt-17" value="2. 缓存命中，返回结果" style="text;html=1;align=center;verticalAlign=middle;whiteSpace=wrap;rounded=0;fontFamily=Helvetica;fontStyle=1" vertex="1" parent="1">
          <mxGeometry x="320" y="210" width="140" height="30" as="geometry" />
        </mxCell>
        <mxCell id="W_dNfOB0aYCIcV3kxhHt-31" value="" style="rounded=0;whiteSpace=wrap;html=1;sketch=1;hachureGap=4;jiggle=2;curveFitting=1;fontFamily=Architects Daughter;fontSource=https%3A%2F%2Ffonts.googleapis.com%2Fcss%3Ffamily%3DArchitects%2BDaughter;" vertex="1" parent="1">
          <mxGeometry x="90" y="290" width="660" height="220" as="geometry" />
        </mxCell>
        <mxCell id="W_dNfOB0aYCIcV3kxhHt-32" value="缓存雪崩" style="text;html=1;align=center;verticalAlign=middle;whiteSpace=wrap;rounded=0;fontFamily=Helvetica;fontStyle=1;fontSize=20;" vertex="1" parent="1">
          <mxGeometry x="100" y="385" width="90" height="30" as="geometry" />
        </mxCell>
        <mxCell id="W_dNfOB0aYCIcV3kxhHt-33" value="" style="sketch=0;outlineConnect=0;fontColor=#232F3E;gradientColor=none;fillColor=#232F3D;strokeColor=none;dashed=0;verticalLabelPosition=bottom;verticalAlign=top;align=center;html=1;fontSize=12;fontStyle=0;aspect=fixed;pointerEvents=1;shape=mxgraph.aws4.client;hachureGap=4;jiggle=2;curveFitting=1;fontFamily=Architects Daughter;fontSource=https%3A%2F%2Ffonts.googleapis.com%2Fcss%3Ffamily%3DArchitects%2BDaughter;" vertex="1" parent="1">
          <mxGeometry x="250" y="356.75" width="57.99" height="56.5" as="geometry" />
        </mxCell>
        <mxCell id="W_dNfOB0aYCIcV3kxhHt-34" value="" style="image;sketch=0;aspect=fixed;html=1;points=[];align=center;fontSize=12;image=img/lib/mscae/Cache_Redis_Product.svg;hachureGap=4;jiggle=2;curveFitting=1;fontFamily=Architects Daughter;fontSource=https%3A%2F%2Ffonts.googleapis.com%2Fcss%3Ffamily%3DArchitects%2BDaughter;" vertex="1" parent="1">
          <mxGeometry x="470" y="362" width="54.76" height="46" as="geometry" />
        </mxCell>
        <mxCell id="W_dNfOB0aYCIcV3kxhHt-35" value="" style="image;aspect=fixed;html=1;points=[];align=center;fontSize=12;image=img/lib/azure2/databases/Azure_Database_MySQL_Server.svg;sketch=1;hachureGap=4;jiggle=2;curveFitting=1;fontFamily=Architects Daughter;fontSource=https%3A%2F%2Ffonts.googleapis.com%2Fcss%3Ffamily%3DArchitects%2BDaughter;" vertex="1" parent="1">
          <mxGeometry x="670" y="353.37" width="47.44" height="63.25" as="geometry" />
        </mxCell>
        <mxCell id="W_dNfOB0aYCIcV3kxhHt-36" value="数据库" style="text;html=1;align=center;verticalAlign=middle;whiteSpace=wrap;rounded=0;fontFamily=Helvetica;fontStyle=1;fontSize=16;" vertex="1" parent="1">
          <mxGeometry x="670" y="413.25" width="60" height="30" as="geometry" />
        </mxCell>
        <mxCell id="W_dNfOB0aYCIcV3kxhHt-37" value="" style="endArrow=classic;html=1;rounded=0;hachureGap=4;fontFamily=Architects Daughter;fontSource=https%3A%2F%2Ffonts.googleapis.com%2Fcss%3Ffamily%3DArchitects%2BDaughter;entryX=0.054;entryY=0.208;entryDx=0;entryDy=0;entryPerimeter=0;flowAnimation=1;" edge="1" parent="1" target="W_dNfOB0aYCIcV3kxhHt-34">
          <mxGeometry width="50" height="50" relative="1" as="geometry">
            <mxPoint x="310" y="370" as="sourcePoint" />
            <mxPoint x="420" y="350" as="targetPoint" />
          </mxGeometry>
        </mxCell>
        <mxCell id="W_dNfOB0aYCIcV3kxhHt-38" value="" style="endArrow=classic;html=1;rounded=0;hachureGap=4;fontFamily=Architects Daughter;fontSource=https%3A%2F%2Ffonts.googleapis.com%2Fcss%3Ffamily%3DArchitects%2BDaughter;flowAnimation=1;exitX=-0.011;exitY=0.694;exitDx=0;exitDy=0;exitPerimeter=0;entryX=1.029;entryY=0.7;entryDx=0;entryDy=0;entryPerimeter=0;" edge="1" parent="1" source="W_dNfOB0aYCIcV3kxhHt-34" target="W_dNfOB0aYCIcV3kxhHt-33">
          <mxGeometry width="50" height="50" relative="1" as="geometry">
            <mxPoint x="470" y="365" as="sourcePoint" />
            <mxPoint x="310" y="374" as="targetPoint" />
          </mxGeometry>
        </mxCell>
        <mxCell id="W_dNfOB0aYCIcV3kxhHt-39" value="Redis" style="text;html=1;align=center;verticalAlign=middle;whiteSpace=wrap;rounded=0;fontFamily=Helvetica;fontStyle=1;fontSize=16;" vertex="1" parent="1">
          <mxGeometry x="470" y="413.25" width="60" height="30" as="geometry" />
        </mxCell>
        <mxCell id="W_dNfOB0aYCIcV3kxhHt-40" value="客户端" style="text;html=1;align=center;verticalAlign=middle;whiteSpace=wrap;rounded=0;fontFamily=Helvetica;fontStyle=1;fontSize=16;" vertex="1" parent="1">
          <mxGeometry x="250" y="416.62" width="60" height="30" as="geometry" />
        </mxCell>
        <mxCell id="W_dNfOB0aYCIcV3kxhHt-41" value="1. 读请求" style="text;html=1;align=center;verticalAlign=middle;whiteSpace=wrap;rounded=0;fontFamily=Helvetica;fontStyle=1" vertex="1" parent="1">
          <mxGeometry x="360" y="350" width="60" height="30" as="geometry" />
        </mxCell>
        <mxCell id="W_dNfOB0aYCIcV3kxhHt-42" value="2. 大量缓存同时过期&lt;br&gt;缓存未命中" style="text;html=1;align=center;verticalAlign=middle;whiteSpace=wrap;rounded=0;fontFamily=Helvetica;fontStyle=1" vertex="1" parent="1">
          <mxGeometry x="320" y="400" width="140" height="30" as="geometry" />
        </mxCell>
        <mxCell id="W_dNfOB0aYCIcV3kxhHt-44" value="" style="endArrow=classic;html=1;rounded=0;hachureGap=4;fontFamily=Architects Daughter;fontSource=https%3A%2F%2Ffonts.googleapis.com%2Fcss%3Ffamily%3DArchitects%2BDaughter;entryX=0.558;entryY=-0.047;entryDx=0;entryDy=0;entryPerimeter=0;flowAnimation=1;edgeStyle=orthogonalEdgeStyle;" edge="1" parent="1" source="W_dNfOB0aYCIcV3kxhHt-33" target="W_dNfOB0aYCIcV3kxhHt-35">
          <mxGeometry width="50" height="50" relative="1" as="geometry">
            <mxPoint x="332" y="450" as="sourcePoint" />
            <mxPoint x="495" y="452" as="targetPoint" />
            <Array as="points">
              <mxPoint x="279" y="330" />
              <mxPoint x="696" y="330" />
            </Array>
          </mxGeometry>
        </mxCell>
        <mxCell id="W_dNfOB0aYCIcV3kxhHt-50" value="&lt;b&gt;&lt;font face=&quot;Helvetica&quot;&gt;3. 大量读请求打到数据库&lt;/font&gt;&lt;/b&gt;" style="text;html=1;align=center;verticalAlign=middle;whiteSpace=wrap;rounded=0;fontFamily=Architects Daughter;fontSource=https%3A%2F%2Ffonts.googleapis.com%2Fcss%3Ffamily%3DArchitects%2BDaughter;" vertex="1" parent="1">
          <mxGeometry x="440" y="300" width="170" height="30" as="geometry" />
        </mxCell>
        <mxCell id="W_dNfOB0aYCIcV3kxhHt-51" value="&lt;span style=&quot;white-space-collapse: preserve; text-align: start; color: rgb(6, 6, 7); font-family: -apple-system, blinkmacsystemfont, &amp;quot;Helvetica Neue&amp;quot;, helvetica, &amp;quot;segoe ui&amp;quot;, arial, roboto, &amp;quot;PingFang SC&amp;quot;, miui, &amp;quot;Hiragino Sans GB&amp;quot;, &amp;quot;Microsoft Yahei&amp;quot;, sans-serif; font-size: 14px; letter-spacing: 0.25px; background-color: rgb(255, 255, 255);&quot;&gt;造成原因：缓存雪崩通常由大量缓存数据同时失效或缓存服务宕机引起，导致数据库压力激增&lt;/span&gt;&lt;span style=&quot;white-space-collapse: preserve; text-align: start; color: rgb(6, 6, 7); font-family: -apple-system, blinkmacsystemfont, &amp;quot;Helvetica Neue&amp;quot;, helvetica, &amp;quot;segoe ui&amp;quot;, arial, roboto, &amp;quot;PingFang SC&amp;quot;, miui, &amp;quot;Hiragino Sans GB&amp;quot;, &amp;quot;Microsoft Yahei&amp;quot;, sans-serif; font-size: 14px; letter-spacing: 0.25px; background-color: rgb(255, 255, 255);&quot;&gt;。&lt;/span&gt;&lt;div&gt;&lt;span style=&quot;text-align: start; white-space-collapse: preserve; color: rgb(6, 6, 7); font-family: -apple-system, blinkmacsystemfont, &amp;quot;Helvetica Neue&amp;quot;, helvetica, &amp;quot;segoe ui&amp;quot;, arial, roboto, &amp;quot;PingFang SC&amp;quot;, miui, &amp;quot;Hiragino Sans GB&amp;quot;, &amp;quot;Microsoft Yahei&amp;quot;, sans-serif; font-size: 14px; letter-spacing: 0.25px; background-color: rgb(255, 255, 255);&quot;&gt;应对策略：包括设置随机缓存失效时间、引入二级缓存、限流降级以及缓存预热等 &lt;/span&gt;&lt;/div&gt;" style="rounded=0;whiteSpace=wrap;html=1;sketch=1;hachureGap=4;jiggle=2;curveFitting=1;fontFamily=Architects Daughter;fontSource=https%3A%2F%2Ffonts.googleapis.com%2Fcss%3Ffamily%3DArchitects%2BDaughter;" vertex="1" parent="1">
          <mxGeometry x="940" y="353.25" width="620" height="60" as="geometry" />
        </mxCell>
        <mxCell id="W_dNfOB0aYCIcV3kxhHt-53" value="&lt;font color=&quot;#cc6600&quot;&gt;&lt;b&gt;&lt;span style=&quot;white-space-collapse: preserve; font-family: -apple-system, blinkmacsystemfont, &amp;quot;Helvetica Neue&amp;quot;, helvetica, &amp;quot;segoe ui&amp;quot;, arial, roboto, &amp;quot;PingFang SC&amp;quot;, miui, &amp;quot;Hiragino Sans GB&amp;quot;, &amp;quot;Microsoft Yahei&amp;quot;, sans-serif; font-size: 14px; letter-spacing: 0.25px; background-color: rgb(255, 255, 255);&quot;&gt;造成原因：缓存雪崩通常由大量缓存数据同时失效或缓存服务宕机引起，导致数据库压力激增&lt;/span&gt;&lt;span style=&quot;white-space-collapse: preserve; font-family: -apple-system, blinkmacsystemfont, &amp;quot;Helvetica Neue&amp;quot;, helvetica, &amp;quot;segoe ui&amp;quot;, arial, roboto, &amp;quot;PingFang SC&amp;quot;, miui, &amp;quot;Hiragino Sans GB&amp;quot;, &amp;quot;Microsoft Yahei&amp;quot;, sans-serif; font-size: 14px; letter-spacing: 0.25px; background-color: rgb(255, 255, 255);&quot;&gt;。&lt;/span&gt;&lt;/b&gt;&lt;/font&gt;&lt;div&gt;&lt;span style=&quot;white-space-collapse: preserve; font-family: -apple-system, blinkmacsystemfont, &amp;quot;Helvetica Neue&amp;quot;, helvetica, &amp;quot;segoe ui&amp;quot;, arial, roboto, &amp;quot;PingFang SC&amp;quot;, miui, &amp;quot;Hiragino Sans GB&amp;quot;, &amp;quot;Microsoft Yahei&amp;quot;, sans-serif; font-size: 14px; letter-spacing: 0.25px; background-color: rgb(255, 255, 255);&quot;&gt;&lt;font color=&quot;#00cc00&quot;&gt;&lt;b&gt;应对策略：包括设置随机缓存失效时间、引入二级缓存、限流降级以及缓存预热等 。&lt;/b&gt;&lt;/font&gt;&lt;/span&gt;&lt;/div&gt;" style="text;html=1;align=left;verticalAlign=middle;whiteSpace=wrap;rounded=0;fontFamily=Architects Daughter;fontSource=https%3A%2F%2Ffonts.googleapis.com%2Fcss%3Ffamily%3DArchitects%2BDaughter;" vertex="1" parent="1">
          <mxGeometry x="120" y="470" width="610" height="30" as="geometry" />
        </mxCell>
        <mxCell id="W_dNfOB0aYCIcV3kxhHt-54" value="" style="rounded=0;whiteSpace=wrap;html=1;sketch=1;hachureGap=4;jiggle=2;curveFitting=1;fontFamily=Architects Daughter;fontSource=https%3A%2F%2Ffonts.googleapis.com%2Fcss%3Ffamily%3DArchitects%2BDaughter;" vertex="1" parent="1">
          <mxGeometry x="90" y="530" width="660" height="230" as="geometry" />
        </mxCell>
        <mxCell id="W_dNfOB0aYCIcV3kxhHt-55" value="缓存击穿" style="text;html=1;align=center;verticalAlign=middle;whiteSpace=wrap;rounded=0;fontFamily=Helvetica;fontStyle=1;fontSize=20;" vertex="1" parent="1">
          <mxGeometry x="100" y="625" width="90" height="30" as="geometry" />
        </mxCell>
        <mxCell id="W_dNfOB0aYCIcV3kxhHt-56" value="" style="sketch=0;outlineConnect=0;fontColor=#232F3E;gradientColor=none;fillColor=#232F3D;strokeColor=none;dashed=0;verticalLabelPosition=bottom;verticalAlign=top;align=center;html=1;fontSize=12;fontStyle=0;aspect=fixed;pointerEvents=1;shape=mxgraph.aws4.client;hachureGap=4;jiggle=2;curveFitting=1;fontFamily=Architects Daughter;fontSource=https%3A%2F%2Ffonts.googleapis.com%2Fcss%3Ffamily%3DArchitects%2BDaughter;" vertex="1" parent="1">
          <mxGeometry x="250" y="596.75" width="57.99" height="56.5" as="geometry" />
        </mxCell>
        <mxCell id="W_dNfOB0aYCIcV3kxhHt-57" value="" style="image;sketch=0;aspect=fixed;html=1;points=[];align=center;fontSize=12;image=img/lib/mscae/Cache_Redis_Product.svg;hachureGap=4;jiggle=2;curveFitting=1;fontFamily=Architects Daughter;fontSource=https%3A%2F%2Ffonts.googleapis.com%2Fcss%3Ffamily%3DArchitects%2BDaughter;" vertex="1" parent="1">
          <mxGeometry x="470" y="602" width="54.76" height="46" as="geometry" />
        </mxCell>
        <mxCell id="W_dNfOB0aYCIcV3kxhHt-58" value="" style="image;aspect=fixed;html=1;points=[];align=center;fontSize=12;image=img/lib/azure2/databases/Azure_Database_MySQL_Server.svg;sketch=1;hachureGap=4;jiggle=2;curveFitting=1;fontFamily=Architects Daughter;fontSource=https%3A%2F%2Ffonts.googleapis.com%2Fcss%3Ffamily%3DArchitects%2BDaughter;" vertex="1" parent="1">
          <mxGeometry x="670" y="593.37" width="47.44" height="63.25" as="geometry" />
        </mxCell>
        <mxCell id="W_dNfOB0aYCIcV3kxhHt-59" value="数据库" style="text;html=1;align=center;verticalAlign=middle;whiteSpace=wrap;rounded=0;fontFamily=Helvetica;fontStyle=1;fontSize=16;" vertex="1" parent="1">
          <mxGeometry x="670" y="653.25" width="60" height="30" as="geometry" />
        </mxCell>
        <mxCell id="W_dNfOB0aYCIcV3kxhHt-60" value="" style="endArrow=classic;html=1;rounded=0;hachureGap=4;fontFamily=Architects Daughter;fontSource=https%3A%2F%2Ffonts.googleapis.com%2Fcss%3Ffamily%3DArchitects%2BDaughter;entryX=0.054;entryY=0.208;entryDx=0;entryDy=0;entryPerimeter=0;flowAnimation=1;" edge="1" parent="1" target="W_dNfOB0aYCIcV3kxhHt-57">
          <mxGeometry width="50" height="50" relative="1" as="geometry">
            <mxPoint x="310" y="610" as="sourcePoint" />
            <mxPoint x="420" y="590" as="targetPoint" />
          </mxGeometry>
        </mxCell>
        <mxCell id="W_dNfOB0aYCIcV3kxhHt-61" value="" style="endArrow=classic;html=1;rounded=0;hachureGap=4;fontFamily=Architects Daughter;fontSource=https%3A%2F%2Ffonts.googleapis.com%2Fcss%3Ffamily%3DArchitects%2BDaughter;flowAnimation=1;exitX=-0.011;exitY=0.694;exitDx=0;exitDy=0;exitPerimeter=0;entryX=1.029;entryY=0.7;entryDx=0;entryDy=0;entryPerimeter=0;" edge="1" parent="1" source="W_dNfOB0aYCIcV3kxhHt-57" target="W_dNfOB0aYCIcV3kxhHt-56">
          <mxGeometry width="50" height="50" relative="1" as="geometry">
            <mxPoint x="470" y="605" as="sourcePoint" />
            <mxPoint x="310" y="614" as="targetPoint" />
          </mxGeometry>
        </mxCell>
        <mxCell id="W_dNfOB0aYCIcV3kxhHt-62" value="Redis" style="text;html=1;align=center;verticalAlign=middle;whiteSpace=wrap;rounded=0;fontFamily=Helvetica;fontStyle=1;fontSize=16;" vertex="1" parent="1">
          <mxGeometry x="470" y="653.25" width="60" height="30" as="geometry" />
        </mxCell>
        <mxCell id="W_dNfOB0aYCIcV3kxhHt-63" value="客户端" style="text;html=1;align=center;verticalAlign=middle;whiteSpace=wrap;rounded=0;fontFamily=Helvetica;fontStyle=1;fontSize=16;" vertex="1" parent="1">
          <mxGeometry x="250" y="656.62" width="60" height="30" as="geometry" />
        </mxCell>
        <mxCell id="W_dNfOB0aYCIcV3kxhHt-64" value="1. 读请求" style="text;html=1;align=center;verticalAlign=middle;whiteSpace=wrap;rounded=0;fontFamily=Helvetica;fontStyle=1" vertex="1" parent="1">
          <mxGeometry x="360" y="590" width="60" height="30" as="geometry" />
        </mxCell>
        <mxCell id="W_dNfOB0aYCIcV3kxhHt-65" value="2. 热点数据过期失效、缓存未命中" style="text;html=1;align=center;verticalAlign=middle;whiteSpace=wrap;rounded=0;fontFamily=Helvetica;fontStyle=1" vertex="1" parent="1">
          <mxGeometry x="320" y="640" width="140" height="30" as="geometry" />
        </mxCell>
        <mxCell id="W_dNfOB0aYCIcV3kxhHt-67" value="" style="endArrow=classic;html=1;rounded=0;hachureGap=4;fontFamily=Architects Daughter;fontSource=https%3A%2F%2Ffonts.googleapis.com%2Fcss%3Ffamily%3DArchitects%2BDaughter;entryX=0.558;entryY=-0.047;entryDx=0;entryDy=0;entryPerimeter=0;flowAnimation=1;edgeStyle=orthogonalEdgeStyle;" edge="1" parent="1" source="W_dNfOB0aYCIcV3kxhHt-56" target="W_dNfOB0aYCIcV3kxhHt-58">
          <mxGeometry width="50" height="50" relative="1" as="geometry">
            <mxPoint x="332" y="690" as="sourcePoint" />
            <mxPoint x="495" y="692" as="targetPoint" />
            <Array as="points">
              <mxPoint x="279" y="570" />
              <mxPoint x="696" y="570" />
            </Array>
          </mxGeometry>
        </mxCell>
        <mxCell id="W_dNfOB0aYCIcV3kxhHt-68" value="&lt;b&gt;&lt;font face=&quot;Helvetica&quot;&gt;3. 大量读请求打到数据库&lt;/font&gt;&lt;/b&gt;" style="text;html=1;align=center;verticalAlign=middle;whiteSpace=wrap;rounded=0;fontFamily=Architects Daughter;fontSource=https%3A%2F%2Ffonts.googleapis.com%2Fcss%3Ffamily%3DArchitects%2BDaughter;" vertex="1" parent="1">
          <mxGeometry x="440" y="540" width="170" height="30" as="geometry" />
        </mxCell>
        <mxCell id="W_dNfOB0aYCIcV3kxhHt-69" value="&lt;font face=&quot;Helvetica&quot; color=&quot;#cc6600&quot;&gt;&lt;b style=&quot;&quot;&gt;&lt;span style=&quot;white-space-collapse: preserve; font-size: 14px; letter-spacing: 0.25px; background-color: rgb(255, 255, 255);&quot;&gt;造成原因：&lt;/span&gt;&lt;span style=&quot;text-align: center;&quot;&gt;缓存击穿通常是由于某个热点数据的缓存过期，导致大量并发请求同时访问数据库，造成数据库压力瞬间增大。&lt;/span&gt;&lt;/b&gt;&lt;/font&gt;&lt;div&gt;&lt;font face=&quot;Helvetica&quot; style=&quot;&quot; color=&quot;#00cc66&quot;&gt;&lt;b&gt;&lt;span style=&quot;white-space-collapse: preserve; font-size: 14px; letter-spacing: 0.25px; background-color: rgb(255, 255, 255);&quot;&gt;应对策略：&lt;/span&gt;&lt;span style=&quot;text-align: center; background-color: initial;&quot;&gt;互斥锁来保证只有一个请求去查询数据库并更新缓存，或者设置热点数据永不过期，以及通过异步方式更新缓存。&lt;/span&gt;&lt;/b&gt;&lt;/font&gt;&lt;/div&gt;" style="text;html=1;align=left;verticalAlign=middle;whiteSpace=wrap;rounded=0;fontFamily=Architects Daughter;fontSource=https%3A%2F%2Ffonts.googleapis.com%2Fcss%3Ffamily%3DArchitects%2BDaughter;" vertex="1" parent="1">
          <mxGeometry x="120" y="710" width="610" height="30" as="geometry" />
        </mxCell>
        <mxCell id="W_dNfOB0aYCIcV3kxhHt-70" value="缓存击穿通常是由于某个热点数据的缓存过期，导致大量并发请求同时访问数据库，造成数据库压力瞬间增大。应对策略包括使用互斥锁来保证只有一个请求去查询数据库并更新缓存，或者设置热点数据永不过期，以及通过异步方式更新缓存。" style="rounded=0;whiteSpace=wrap;html=1;sketch=1;hachureGap=4;jiggle=2;curveFitting=1;fontFamily=Architects Daughter;fontSource=https%3A%2F%2Ffonts.googleapis.com%2Fcss%3Ffamily%3DArchitects%2BDaughter;" vertex="1" parent="1">
          <mxGeometry x="895" y="610" width="690" height="60" as="geometry" />
        </mxCell>
        <mxCell id="W_dNfOB0aYCIcV3kxhHt-71" value="" style="rounded=0;whiteSpace=wrap;html=1;sketch=1;hachureGap=4;jiggle=2;curveFitting=1;fontFamily=Architects Daughter;fontSource=https%3A%2F%2Ffonts.googleapis.com%2Fcss%3Ffamily%3DArchitects%2BDaughter;" vertex="1" parent="1">
          <mxGeometry x="90" y="770" width="660" height="230" as="geometry" />
        </mxCell>
        <mxCell id="W_dNfOB0aYCIcV3kxhHt-72" value="缓存击穿" style="text;html=1;align=center;verticalAlign=middle;whiteSpace=wrap;rounded=0;fontFamily=Helvetica;fontStyle=1;fontSize=20;" vertex="1" parent="1">
          <mxGeometry x="100" y="865" width="90" height="30" as="geometry" />
        </mxCell>
        <mxCell id="W_dNfOB0aYCIcV3kxhHt-73" value="" style="sketch=0;outlineConnect=0;fontColor=#232F3E;gradientColor=none;fillColor=#232F3D;strokeColor=none;dashed=0;verticalLabelPosition=bottom;verticalAlign=top;align=center;html=1;fontSize=12;fontStyle=0;aspect=fixed;pointerEvents=1;shape=mxgraph.aws4.client;hachureGap=4;jiggle=2;curveFitting=1;fontFamily=Architects Daughter;fontSource=https%3A%2F%2Ffonts.googleapis.com%2Fcss%3Ffamily%3DArchitects%2BDaughter;" vertex="1" parent="1">
          <mxGeometry x="250" y="836.75" width="57.99" height="56.5" as="geometry" />
        </mxCell>
        <mxCell id="W_dNfOB0aYCIcV3kxhHt-74" value="" style="image;sketch=0;aspect=fixed;html=1;points=[];align=center;fontSize=12;image=img/lib/mscae/Cache_Redis_Product.svg;hachureGap=4;jiggle=2;curveFitting=1;fontFamily=Architects Daughter;fontSource=https%3A%2F%2Ffonts.googleapis.com%2Fcss%3Ffamily%3DArchitects%2BDaughter;" vertex="1" parent="1">
          <mxGeometry x="470" y="842" width="54.76" height="46" as="geometry" />
        </mxCell>
        <mxCell id="W_dNfOB0aYCIcV3kxhHt-75" value="" style="image;aspect=fixed;html=1;points=[];align=center;fontSize=12;image=img/lib/azure2/databases/Azure_Database_MySQL_Server.svg;sketch=1;hachureGap=4;jiggle=2;curveFitting=1;fontFamily=Architects Daughter;fontSource=https%3A%2F%2Ffonts.googleapis.com%2Fcss%3Ffamily%3DArchitects%2BDaughter;" vertex="1" parent="1">
          <mxGeometry x="670" y="833.37" width="47.44" height="63.25" as="geometry" />
        </mxCell>
        <mxCell id="W_dNfOB0aYCIcV3kxhHt-76" value="" style="endArrow=classic;html=1;rounded=0;hachureGap=4;fontFamily=Architects Daughter;fontSource=https%3A%2F%2Ffonts.googleapis.com%2Fcss%3Ffamily%3DArchitects%2BDaughter;entryX=0.054;entryY=0.208;entryDx=0;entryDy=0;entryPerimeter=0;flowAnimation=1;" edge="1" parent="1" target="W_dNfOB0aYCIcV3kxhHt-74">
          <mxGeometry width="50" height="50" relative="1" as="geometry">
            <mxPoint x="310" y="850" as="sourcePoint" />
            <mxPoint x="420" y="830" as="targetPoint" />
          </mxGeometry>
        </mxCell>
        <mxCell id="W_dNfOB0aYCIcV3kxhHt-77" value="" style="endArrow=classic;html=1;rounded=0;hachureGap=4;fontFamily=Architects Daughter;fontSource=https%3A%2F%2Ffonts.googleapis.com%2Fcss%3Ffamily%3DArchitects%2BDaughter;flowAnimation=1;exitX=-0.011;exitY=0.694;exitDx=0;exitDy=0;exitPerimeter=0;entryX=1.029;entryY=0.7;entryDx=0;entryDy=0;entryPerimeter=0;" edge="1" parent="1" source="W_dNfOB0aYCIcV3kxhHt-74" target="W_dNfOB0aYCIcV3kxhHt-73">
          <mxGeometry width="50" height="50" relative="1" as="geometry">
            <mxPoint x="470" y="845" as="sourcePoint" />
            <mxPoint x="310" y="854" as="targetPoint" />
          </mxGeometry>
        </mxCell>
        <mxCell id="W_dNfOB0aYCIcV3kxhHt-78" value="Redis" style="text;html=1;align=center;verticalAlign=middle;whiteSpace=wrap;rounded=0;fontFamily=Helvetica;fontStyle=1;fontSize=16;" vertex="1" parent="1">
          <mxGeometry x="470" y="893.25" width="60" height="30" as="geometry" />
        </mxCell>
        <mxCell id="W_dNfOB0aYCIcV3kxhHt-79" value="客户端" style="text;html=1;align=center;verticalAlign=middle;whiteSpace=wrap;rounded=0;fontFamily=Helvetica;fontStyle=1;fontSize=16;" vertex="1" parent="1">
          <mxGeometry x="250" y="896.62" width="60" height="30" as="geometry" />
        </mxCell>
        <mxCell id="W_dNfOB0aYCIcV3kxhHt-80" value="1. 读请求" style="text;html=1;align=center;verticalAlign=middle;whiteSpace=wrap;rounded=0;fontFamily=Helvetica;fontStyle=1" vertex="1" parent="1">
          <mxGeometry x="360" y="830" width="60" height="30" as="geometry" />
        </mxCell>
        <mxCell id="W_dNfOB0aYCIcV3kxhHt-81" value="2. 缓存未命中" style="text;html=1;align=center;verticalAlign=middle;whiteSpace=wrap;rounded=0;fontFamily=Helvetica;fontStyle=1" vertex="1" parent="1">
          <mxGeometry x="320" y="870" width="140" height="30" as="geometry" />
        </mxCell>
        <mxCell id="W_dNfOB0aYCIcV3kxhHt-83" value="" style="endArrow=classic;html=1;rounded=0;hachureGap=4;fontFamily=Architects Daughter;fontSource=https%3A%2F%2Ffonts.googleapis.com%2Fcss%3Ffamily%3DArchitects%2BDaughter;entryX=0.558;entryY=-0.047;entryDx=0;entryDy=0;entryPerimeter=0;flowAnimation=1;edgeStyle=orthogonalEdgeStyle;" edge="1" parent="1" source="W_dNfOB0aYCIcV3kxhHt-73" target="W_dNfOB0aYCIcV3kxhHt-75">
          <mxGeometry width="50" height="50" relative="1" as="geometry">
            <mxPoint x="332" y="930" as="sourcePoint" />
            <mxPoint x="495" y="932" as="targetPoint" />
            <Array as="points">
              <mxPoint x="279" y="810" />
              <mxPoint x="696" y="810" />
            </Array>
          </mxGeometry>
        </mxCell>
        <mxCell id="W_dNfOB0aYCIcV3kxhHt-84" value="&lt;b&gt;&lt;font face=&quot;Helvetica&quot;&gt;3. 大量读请求打到数据库&lt;/font&gt;&lt;/b&gt;" style="text;html=1;align=center;verticalAlign=middle;whiteSpace=wrap;rounded=0;fontFamily=Architects Daughter;fontSource=https%3A%2F%2Ffonts.googleapis.com%2Fcss%3Ffamily%3DArchitects%2BDaughter;" vertex="1" parent="1">
          <mxGeometry x="440" y="780" width="170" height="30" as="geometry" />
        </mxCell>
        <mxCell id="W_dNfOB0aYCIcV3kxhHt-85" value="&lt;font face=&quot;Helvetica&quot; color=&quot;#cc6600&quot;&gt;&lt;b&gt;&lt;span style=&quot;white-space-collapse: preserve; font-size: 14px; letter-spacing: 0.25px; background-color: rgb(255, 255, 255);&quot;&gt;造成原因：&lt;/span&gt;缓存穿透的造成原因主要是查询不存在的数据，导致请求直接访问数据库，增加数据库压力。&lt;/b&gt;&lt;/font&gt;&lt;div&gt;&lt;font face=&quot;Helvetica&quot; color=&quot;#00cc66&quot;&gt;&lt;b&gt;&lt;span style=&quot;white-space-collapse: preserve; font-size: 14px; letter-spacing: 0.25px; background-color: rgb(255, 255, 255);&quot;&gt;应对策略：&lt;/span&gt;&lt;span style=&quot;background-color: initial;&quot;&gt;使用布隆过滤器来过滤不存在的数据，以及将空结果缓存起来，设置较短的过期时间，避免对数据库的重复查询。&lt;/span&gt;&lt;/b&gt;&lt;/font&gt;&lt;/div&gt;" style="text;html=1;align=left;verticalAlign=middle;whiteSpace=wrap;rounded=0;fontFamily=Architects Daughter;fontSource=https%3A%2F%2Ffonts.googleapis.com%2Fcss%3Ffamily%3DArchitects%2BDaughter;" vertex="1" parent="1">
          <mxGeometry x="120" y="950" width="610" height="30" as="geometry" />
        </mxCell>
        <mxCell id="W_dNfOB0aYCIcV3kxhHt-86" value="&lt;b&gt;&lt;font face=&quot;Helvetica&quot;&gt;数据库中也未查到数据&lt;/font&gt;&lt;/b&gt;" style="text;html=1;align=center;verticalAlign=middle;whiteSpace=wrap;rounded=0;fontFamily=Architects Daughter;fontSource=https%3A%2F%2Ffonts.googleapis.com%2Fcss%3Ffamily%3DArchitects%2BDaughter;" vertex="1" parent="1">
          <mxGeometry x="600" y="810" width="70" height="50" as="geometry" />
        </mxCell>
        <mxCell id="W_dNfOB0aYCIcV3kxhHt-88" value="缓存穿透的造成原因主要是查询不存在的数据，导致请求直接访问数据库，增加数据库压力。&lt;div&gt;应对策略包括使用布隆过滤器来过滤不存在的数据，以及将空结果缓存起来，设置较短的过期时间，避免对数据库的重复查询。&lt;/div&gt;" style="whiteSpace=wrap;html=1;sketch=1;hachureGap=4;jiggle=2;curveFitting=1;fontFamily=Architects Daughter;fontSource=https%3A%2F%2Ffonts.googleapis.com%2Fcss%3Ffamily%3DArchitects%2BDaughter;" vertex="1" parent="1">
          <mxGeometry x="930" y="850" width="630" height="60" as="geometry" />
        </mxCell>
      </root>
    </mxGraphModel>
  </diagram>
</mxfile>
